<svg width="20" height="22" viewBox="0 0 20 22" fill="none" xmlns="http://www.w3.org/2000/svg">
<path d="M10.1694 14.4463C13.6956 14.4946 17.1115 11.6883 17.0729 7.60421C17.0352 3.61682 13.7073 0.770067 9.9441 0.873841C6.27065 0.974977 3.17069 3.8613 3.20749 7.72469C3.24608 11.8035 6.70863 14.5307 10.1694 14.4463ZM10.1353 3.22371C12.6626 3.22459 14.6937 5.21037 14.6937 7.67896C14.6937 10.13 12.6285 12.1518 10.129 12.1474C7.63305 12.143 5.58496 10.1185 5.58676 7.65609C5.58945 5.21125 7.62946 3.22283 10.1353 3.22371Z" fill="#756550"/>
<path d="M10.209 18.9549C11.2178 18.9839 12.3091 18.8845 13.387 19.0815C14.8894 19.3559 16.2105 20.0005 17.3369 21.0127C17.7219 21.3584 18.1554 21.4736 18.6392 21.3065C19.4864 21.0136 19.6856 19.968 19.0125 19.3453C17.8242 18.2478 16.434 17.4871 14.8679 17.0412C13.9058 16.7668 12.9221 16.627 11.9169 16.6331C10.6497 16.641 9.38149 16.6111 8.11422 16.641C5.54918 16.7008 3.30274 17.5794 1.3821 19.2486C1.01413 19.5687 0.815781 19.9592 0.938738 20.4517C1.05272 20.9063 1.348 21.2027 1.81021 21.3223C2.23921 21.4331 2.61167 21.2933 2.92669 21.0145C4.1796 19.9064 5.63803 19.2275 7.30917 19.0191C8.24436 18.903 9.19032 18.9672 10.209 18.9549Z" fill="#756550"/>
</svg>
