<?xml version="1.0" encoding="utf-8"?>
<!-- Generator: Adobe Illustrator 27.1.1, SVG Export Plug-In . SVG Version: 6.00 Build 0)  -->
<svg version="1.1" id="圖層_1" xmlns="http://www.w3.org/2000/svg" xmlns:xlink="http://www.w3.org/1999/xlink" x="0px" y="0px"
	 viewBox="0 0 20 22" style="enable-background:new 0 0 20 22;" xml:space="preserve">
<style type="text/css">
	.st0{fill:#756550;}
</style>
<g>
	<path class="st0" d="M11.5,16.1c-1.4,0-2.7,0-4.1,0c-1.4,0-2.6-0.9-2.9-2.4c-0.4-2.3-1-4.7-1.5-7c-0.1-0.5-0.3-1-0.4-1.4
		C2.4,5,2.1,4.8,1.7,4.8c-0.2,0-0.4,0-0.6,0C0.6,4.7,0.3,4.3,0.3,3.9C0.3,3.4,0.6,3,1.1,3c0.7-0.1,1.3,0,2,0.3
		c0.6,0.3,1,0.8,1.2,1.5C4.4,5,4.4,5.2,4.5,5.4c0,0.1,0.1,0.2,0.3,0.2c0.1,0,0.2,0,0.3,0c3.8,0,7.7,0,11.5,0c1.3,0,2.4,0.9,2.7,2.1
		c0.1,0.4,0.1,0.9,0,1.3c-0.3,1.6-0.6,3.2-0.8,4.8c-0.2,1.3-1.3,2.3-2.7,2.3c0,0,0,0-0.1,0C14.3,16.1,12.9,16.1,11.5,16.1z M11,7.4
		c-1.9,0-3.8,0-5.7,0c-0.2,0-0.2,0-0.2,0.2c0.4,2,0.8,4,1.2,6C6.3,14,6.6,14.2,7,14.3c0.1,0,0.2,0,0.3,0c2.7,0,5.5,0,8.2,0
		c0.1,0,0.1,0,0.2,0c0.5,0,0.8-0.3,0.9-0.7c0.3-1.7,0.6-3.4,0.8-5.1c0.1-0.7-0.2-1.1-0.9-1.1C14.7,7.4,12.8,7.4,11,7.4z"/>
	<path class="st0" d="M7.5,17c1,0,1.8,0.8,1.8,1.8c0,1-0.8,1.8-1.8,1.8c-1,0-1.8-0.8-1.8-1.8C5.6,17.7,6.4,17,7.5,17z"/>
	<path class="st0" d="M15.5,17c1,0,1.8,0.8,1.8,1.8c0,1-0.8,1.8-1.8,1.8c-1,0-1.8-0.8-1.8-1.8C13.7,17.7,14.5,17,15.5,17z"/>
	<path class="st0" d="M17.6,8.2H5c0.3,2.3,1.1,6.9,1.6,7.3c0.5,0.4,6.4,0.2,9.4,0C17.8,15.3,17.8,10.5,17.6,8.2z"/>
</g>
</svg>
